# xmcd CD database file
#
# Track frame offsets:
#	150
#	15869
#	35605
#	57795
#	96128
#	107895
#	141385
#	170442
#	200804
#	218648
#	258374
#
# Disc length: 3879 seconds
#
# Revision: 0
# Processed by: cddbd v1.5.2PL0 Copyright (c) Steve Scherf et al.
# Submitted via: CDex 1.99.1
#
DISCID=980f250b
DTITLE=Pee Wee Ellis - In My Ellingtonian Mood
DYEAR=2018
DGENRE=Jazz
TTITLE0=Periodo
TTITLE1=I'm Beginning to See the Light
TTITLE2=Satin Doll
TTITLE3=In a Sentimental Mood
TTITLE4=Take the Coltrane
TTITLE5=Sphisticated Lady
TTITLE6=Warm Valley (take I)
TTITLE7=Warm Valley (take II)
TTITLE8=I Got it Bad and That Ain't Good
TTITLE9=Prelude to a Kiss
TTITLE10=Caravan
EXTD=YEAR: 2018
EXTT0=
EXTT1=
EXTT2=
EXTT3=
EXTT4=
EXTT5=
EXTT6=
EXTT7=
EXTT8=
EXTT9=
EXTT10=
PLAYORDER=
